<svg width="512" height="512" viewBox="0 0 512 512" xmlns="http://www.w3.org/2000/svg">
  <defs>
    <!-- 温かいグラデーション背景 -->
    <linearGradient id="bgGradient" x1="0%" y1="0%" x2="100%" y2="100%">
      <stop offset="0%" style="stop-color:#FFF9F0;stop-opacity:1" />
      <stop offset="100%" style="stop-color:#FFE8E0;stop-opacity:1" />
    </linearGradient>
    <!-- ミルク瓶のグラデーション -->
    <linearGradient id="bottleGradient" x1="0%" y1="0%" x2="0%" y2="100%">
      <stop offset="0%" style="stop-color:#FFB6C1;stop-opacity:1" />
      <stop offset="100%" style="stop-color:#FF9AA2;stop-opacity:1" />
    </linearGradient>
    <!-- ミルクのグラデーション -->
    <linearGradient id="milkGradient" x1="0%" y1="0%" x2="0%" y2="100%">
      <stop offset="0%" style="stop-color:#FFFACD;stop-opacity:0.9" />
      <stop offset="100%" style="stop-color:#FFF8DC;stop-opacity:0.8" />
    </linearGradient>
  </defs>

  <!-- 背景 -->
  <rect width="512" height="512" fill="url(#bgGradient)" rx="96"/>

  <!-- 哺乳瓶 -->
  <g transform="translate(256, 256)">
    <!-- 乳首部分 -->
    <path d="M -40 -160 L -40 -180 Q -40 -200, -20 -200 L 20 -200 Q 40 -200, 40 -180 L 40 -160"
          fill="none"
          stroke="url(#bottleGradient)"
          stroke-width="16"
          stroke-linecap="round"
          stroke-linejoin="round"/>

    <!-- ボトル本体 -->
    <rect x="-70" y="-160" width="140" height="280" rx="20"
          fill="white"
          stroke="url(#bottleGradient)"
          stroke-width="16"
          stroke-linecap="round"/>

    <!-- ミルクの液面 -->
    <rect x="-58" y="20" width="116" height="88" rx="8"
          fill="url(#milkGradient)"/>

    <!-- 目盛り線 -->
    <line x1="80" y1="-80" x2="100" y2="-80" stroke="url(#bottleGradient)" stroke-width="12" stroke-linecap="round" opacity="0.6"/>
    <line x1="80" y1="0" x2="100" y2="0" stroke="url(#bottleGradient)" stroke-width="12" stroke-linecap="round" opacity="0.6"/>
    <line x1="80" y1="80" x2="100" y2="80" stroke="url(#bottleGradient)" stroke-width="12" stroke-linecap="round" opacity="0.6"/>

    <!-- ハートマーク（温かさの象徴） -->
    <g transform="translate(-90, -100) scale(0.8)">
      <path d="M 0,-10 C -5,-15 -15,-15 -20,-10 C -25,-5 -25,5 -15,15 L 0,30 L 15,15 C 25,5 25,-5 20,-10 C 15,-15 5,-15 0,-10 Z"
            fill="#FFB6C1"
            opacity="0.4"/>
    </g>
  </g>
</svg>
